<svg xmlns="http://www.w3.org/2000/svg" width="298.76" height="44.95" viewBox="0 0 298.76 44.95"><title>logo</title><path d="M7.18,41.18a12.18,12.18,0,0,1-1.56-6.11V14.43a12.24,12.24,0,0,1,.69-4.09,11.85,11.85,0,0,1,2-3.54,11.43,11.43,0,0,1,3.06-2.65,10.87,10.87,0,0,1,5.74-1.56h2a11.25,11.25,0,0,1,4,.71,11.41,11.41,0,0,1,6,5.15,12.12,12.12,0,0,1,1.5,6v.07a1.81,1.81,0,0,1-.21.93,1.91,1.91,0,0,1-.66.72,1.53,1.53,0,0,1-.88.28H24.63a1.6,1.6,0,0,1-.91-.28,2,2,0,0,1-.69-.72,1.78,1.78,0,0,1-.27-.93v-.19a5,5,0,0,0-.61-2.48,4.38,4.38,0,0,0-1.69-1.7A4.73,4.73,0,0,0,18,9.51h-.25a4.59,4.59,0,0,0-2.39.65,4.85,4.85,0,0,0-1.78,1.76A4.51,4.51,0,0,0,13,14.37V34.76a5,5,0,0,0,.67,2.52,5.24,5.24,0,0,0,1.79,1.89,4.29,4.29,0,0,0,2.34.7H18a4.41,4.41,0,0,0,2.4-.69,4.9,4.9,0,0,0,1.71-1.87,5.29,5.29,0,0,0,.62-2.55,1.88,1.88,0,0,1,.95-1.62,1.74,1.74,0,0,1,.92-.25h4.24a1.66,1.66,0,0,1,.91.25,1.77,1.77,0,0,1,.66.67,1.89,1.89,0,0,1,.24.95v.31a13.11,13.11,0,0,1-.68,4.2,12.34,12.34,0,0,1-2,3.62,11.68,11.68,0,0,1-3,2.72,10.93,10.93,0,0,1-5.86,1.68h-2a11,11,0,0,1-4-.74,11.23,11.23,0,0,1-3.44-2.12A11.71,11.71,0,0,1,7.18,41.18Z" transform="translate(-5.62 -2.52)"/><path d="M37.73,40.87A11.6,11.6,0,0,1,36,34.76L36,6a3.8,3.8,0,0,1,.32-1.71,1.79,1.79,0,0,1,.92-.86,4.36,4.36,0,0,1,1.57-.24H41l1.28,0a1.52,1.52,0,0,1,.51.1,2,2,0,0,1,.46.32,1.41,1.41,0,0,1,.47.8A6,6,0,0,1,43.9,6L44,34.38a5.19,5.19,0,0,0,2.47,4.42,4.59,4.59,0,0,0,2.46.7h1a4.58,4.58,0,0,0,2.48-.7,5.14,5.14,0,0,0,2.45-4.42L54.87,6a3.81,3.81,0,0,1,.31-1.68,1.71,1.71,0,0,1,.91-.83,4.32,4.32,0,0,1,1.53-.23h2.43a5,5,0,0,1,1.69.23,1.61,1.61,0,0,1,.89.83A4.19,4.19,0,0,1,62.92,6l-.07,28.74a11.6,11.6,0,0,1-.76,4.18,12.11,12.11,0,0,1-2.15,3.63,12.81,12.81,0,0,1-3.26,2.73A11.68,11.68,0,0,1,50.57,47H48.33a12.32,12.32,0,0,1-4.24-.74,12.25,12.25,0,0,1-6.36-5.37Z" transform="translate(-5.62 -2.52)"/><path d="M72.27,45.17V10.32h-5a2,2,0,0,1-1.31-.41,1.31,1.31,0,0,1-.5-1.09V4.65a1.33,1.33,0,0,1,.5-1.1,2,2,0,0,1,1.31-.4h18.2a2.13,2.13,0,0,1,.91.2A1.87,1.87,0,0,1,87,3.9a1.29,1.29,0,0,1,.24.75V8.82a1.23,1.23,0,0,1-.24.74,1.77,1.77,0,0,1-.66.55,2,2,0,0,1-.91.21h-5.3V45.17a1.68,1.68,0,0,1-.46,1.2,1.54,1.54,0,0,1-1.16.48H73.89a1.41,1.41,0,0,1-.78-.23A1.7,1.7,0,0,1,72.5,46,1.56,1.56,0,0,1,72.27,45.17Z" transform="translate(-5.62 -2.52)"/><path d="M104.81,45.17V10.32h-5a2,2,0,0,1-1.31-.41A1.33,1.33,0,0,1,98,8.82V4.65a1.35,1.35,0,0,1,.5-1.1,2,2,0,0,1,1.31-.4H118a2.12,2.12,0,0,1,.9.2,1.71,1.71,0,0,1,.66.55,1.29,1.29,0,0,1,.24.75V8.82a1.23,1.23,0,0,1-.24.74,1.63,1.63,0,0,1-.66.55,2,2,0,0,1-.9.21h-5.3V45.17a1.73,1.73,0,0,1-.46,1.2,1.55,1.55,0,0,1-1.16.48h-4.62a1.46,1.46,0,0,1-.78-.23A1.87,1.87,0,0,1,105,46,1.66,1.66,0,0,1,104.81,45.17Z" transform="translate(-5.62 -2.52)"/><path d="M123.64,45.17V4.89a1.42,1.42,0,0,1,.24-.77,2,2,0,0,1,.61-.61,1.42,1.42,0,0,1,.77-.24h4.62a1.69,1.69,0,0,1,1.19.46,1.53,1.53,0,0,1,.49,1.16v15.4l11.78-.06V4.89a1.42,1.42,0,0,1,.24-.77,2,2,0,0,1,.65-.61,1.67,1.67,0,0,1,.86-.24h4.49a1.63,1.63,0,0,1,.85.24,1.91,1.91,0,0,1,.65.61,1.42,1.42,0,0,1,.24.77V45.17a1.58,1.58,0,0,1-.24.85,1.63,1.63,0,0,1-.64.61,1.75,1.75,0,0,1-.86.22h-4.49a1.76,1.76,0,0,1-.87-.22,1.7,1.7,0,0,1-.64-.61,1.58,1.58,0,0,1-.24-.85V27.84l-11.78.06V45.17a1.67,1.67,0,0,1-.23.85,1.65,1.65,0,0,1-1.45.83h-4.62a1.46,1.46,0,0,1-.78-.23,1.78,1.78,0,0,1-.61-.61A1.66,1.66,0,0,1,123.64,45.17Z" transform="translate(-5.62 -2.52)"/><path d="M156.68,45.05V4.77a1.59,1.59,0,0,1,.47-1.17,1.69,1.69,0,0,1,1.22-.45h18.39a1.68,1.68,0,0,1,1.2.46,1.54,1.54,0,0,1,.48,1.16v4.3a1.66,1.66,0,0,1-.22.85,1.7,1.7,0,0,1-.61.61,1.67,1.67,0,0,1-.85.23H164.17v9.53h9.53a1.48,1.48,0,0,1,1.56,1.56v4.37a1.48,1.48,0,0,1-1.56,1.56h-9.53V39.12h12.59a1.73,1.73,0,0,1,1.2.46,1.55,1.55,0,0,1,.48,1.16v4.31a1.65,1.65,0,0,1-.83,1.45,1.67,1.67,0,0,1-.85.23H158.37a1.59,1.59,0,0,1-1.21-.49A1.62,1.62,0,0,1,156.68,45.05Z" transform="translate(-5.62 -2.52)"/><path d="M193.09,45.05V4.77a1.59,1.59,0,0,1,.47-1.17,1.69,1.69,0,0,1,1.22-.45h18.39a1.68,1.68,0,0,1,1.2.46,1.54,1.54,0,0,1,.48,1.16v4.3a1.66,1.66,0,0,1-.22.85,1.7,1.7,0,0,1-.61.61,1.67,1.67,0,0,1-.85.23H200.58v9.53h9.53a1.48,1.48,0,0,1,1.56,1.56v4.37a1.48,1.48,0,0,1-1.56,1.56h-9.53V39.12h12.59a1.73,1.73,0,0,1,1.2.46,1.55,1.55,0,0,1,.48,1.16v4.31A1.65,1.65,0,0,1,214,46.5a1.67,1.67,0,0,1-.85.23H194.78a1.59,1.59,0,0,1-1.21-.49A1.62,1.62,0,0,1,193.09,45.05Z" transform="translate(-5.62 -2.52)"/><path d="M220,45.17V5.33A2.08,2.08,0,0,1,221,3.61a1.7,1.7,0,0,1,.92-.27h12.53a11.73,11.73,0,0,1,4,.68,11.42,11.42,0,0,1,3.46,2,11.3,11.3,0,0,1,2.57,3A12,12,0,0,1,246,14.87l.07,20a12.58,12.58,0,0,1-.68,4.09,12.89,12.89,0,0,1-1.92,3.63,11.55,11.55,0,0,1-3,2.76A10.43,10.43,0,0,1,234.74,47h-7l-.1.05h-5.95a1.51,1.51,0,0,1-.85-.25,1.8,1.8,0,0,1-.61-.67A2,2,0,0,1,220,45.17Zm12.84-5.67a4.85,4.85,0,0,0,2.58-.73,5.41,5.41,0,0,0,1.93-1.93,4.9,4.9,0,0,0,.73-2.58v-19a4.44,4.44,0,0,0-.64-2.33,4.83,4.83,0,0,0-1.71-1.71,4.5,4.5,0,0,0-2.33-.63H228.2a.93.93,0,0,0-.66.27.79.79,0,0,0-.28.6V39a.49.49,0,0,0,.13.37.54.54,0,0,0,.37.13Z" transform="translate(-5.62 -2.52)"/><path d="M252.76,41.3a12.29,12.29,0,0,1-1.62-6.17V14.43a12,12,0,0,1,.71-4.16,11.41,11.41,0,0,1,2-3.55,12.1,12.1,0,0,1,3.17-2.64,11.6,11.6,0,0,1,6-1.55h2a12.63,12.63,0,0,1,3.87.51,11.89,11.89,0,0,1,3.49,1.65,10.81,10.81,0,0,1,2.74,2.7A10.61,10.61,0,0,1,277,13.31a1.06,1.06,0,0,1-.31.75,1.09,1.09,0,0,1-.81.31h-5.3a1.67,1.67,0,0,1-1-.28,1.09,1.09,0,0,1-.45-.78A4.77,4.77,0,0,0,268.2,11a3.46,3.46,0,0,0-1.71-1.14,9.13,9.13,0,0,0-2.51-.3h-.25a5.1,5.1,0,0,0-2.5.63,4.82,4.82,0,0,0-1.81,1.72,4.61,4.61,0,0,0-.68,2.45V34.82a4.85,4.85,0,0,0,.7,2.53,5.29,5.29,0,0,0,1.85,1.88,4.72,4.72,0,0,0,2.5.7H264a4.37,4.37,0,0,0,2.41-.7,5.21,5.21,0,0,0,2.39-4.41V31.89h-3.24a1.25,1.25,0,0,1-.91-.4,1.23,1.23,0,0,1-.4-.91V26a1.4,1.4,0,0,1,.22-.76,1.61,1.61,0,0,1,.58-.58,1.4,1.4,0,0,1,.76-.22h9.72a1.34,1.34,0,0,1,.75.22,1.61,1.61,0,0,1,.55.58,1.57,1.57,0,0,1,.2.76v9.1a12.61,12.61,0,0,1-.72,4.25A12.37,12.37,0,0,1,274.23,43a12.24,12.24,0,0,1-3.14,2.78,11.07,11.07,0,0,1-6,1.69h-2a11.32,11.32,0,0,1-4.09-.75,11.82,11.82,0,0,1-3.57-2.14A12.47,12.47,0,0,1,252.76,41.3Z" transform="translate(-5.62 -2.52)"/><path d="M282.62,45.05V4.77a1.59,1.59,0,0,1,.47-1.17,1.69,1.69,0,0,1,1.22-.45H302.7a1.68,1.68,0,0,1,1.2.46,1.54,1.54,0,0,1,.48,1.16v4.3a1.66,1.66,0,0,1-.22.85,1.7,1.7,0,0,1-.61.61,1.67,1.67,0,0,1-.85.23H290.1v9.53h9.54a1.48,1.48,0,0,1,1.56,1.56v4.37a1.48,1.48,0,0,1-1.56,1.56H290.1V39.12h12.6a1.73,1.73,0,0,1,1.2.46,1.55,1.55,0,0,1,.48,1.16v4.31a1.65,1.65,0,0,1-.83,1.45,1.67,1.67,0,0,1-.85.23H284.31a1.59,1.59,0,0,1-1.21-.49A1.62,1.62,0,0,1,282.62,45.05Z" transform="translate(-5.62 -2.52)"/></svg>